<svg width="40" height="40" viewBox="0 0 40 40" fill="none" xmlns="http://www.w3.org/2000/svg">
<path d="M22.7187 13.6046L20.6929 15.5788" stroke="white" stroke-width="1.4" stroke-linecap="round"/>
<path d="M25.2307 17.2119L22.7191 18.5132" stroke="white" stroke-width="1.4" stroke-linecap="round"/>
<path d="M25.5742 22.3433L23.7171 22.4541" stroke="white" stroke-width="1.4" stroke-linecap="round"/>
<path d="M25.3436 26.4418L22.7188 25.3875" stroke="white" stroke-width="1.4" stroke-linecap="round"/>
<path d="M23.0349 29.745L21.719 28.7756" stroke="white" stroke-width="1.4" stroke-linecap="round"/>
<path d="M19.6526 33.0553L18.7502 31.487" stroke="white" stroke-width="1.4" stroke-linecap="round"/>
<path d="M15.3412 35.3965L14.8899 32.604" stroke="white" stroke-width="1.4" stroke-linecap="round"/>
<path d="M9.35815 34.14L10.6102 31.6035" stroke="white" stroke-width="1.4" stroke-linecap="round"/>
<path d="M4.86658 31.75L6.70918 29.6037" stroke="white" stroke-width="1.4" stroke-linecap="round"/>
<path d="M2.71843 27.5114L5.23191 26.2137" stroke="white" stroke-width="1.4" stroke-linecap="round"/>
<path d="M0.718557 23.1184L3.53978 22.9126" stroke="white" stroke-width="1.4" stroke-linecap="round"/>
<path d="M1.71876 18.4015L4.35148 19.4361" stroke="white" stroke-width="1.4" stroke-linecap="round"/>
<path d="M4.73883 13.6041L6.72274 15.6205" stroke="white" stroke-width="1.4" stroke-linecap="round"/>
<path d="M8.41089 11.6048L9.59853 14.1721" stroke="white" stroke-width="1.4" stroke-linecap="round"/>
<path d="M13.0832 9.60401L13.1817 12.431" stroke="white" stroke-width="1.4" stroke-linecap="round"/>
<path d="M18.4894 10.6041L17.6443 13.3037" stroke="white" stroke-width="1.4" stroke-linecap="round"/>
<path d="M13.7188 12.6042C19.2416 12.6042 23.7188 17.0814 23.7188 22.6042C23.7188 28.1271 19.2416 32.6042 13.7188 32.6042C8.1959 32.6042 3.71875 28.1271 3.71875 22.6042C3.71875 17.0814 8.1959 12.6042 13.7188 12.6042ZM16.085 30.657C15.8825 30.6158 15.685 30.7466 15.6436 30.949C15.6023 31.1516 15.7329 31.3501 15.9355 31.3914C16.1381 31.4324 16.3357 31.3009 16.377 31.0984C16.418 30.8959 16.2874 30.6983 16.085 30.657ZM21.0654 26.655C20.9294 26.6274 20.7962 26.7153 20.7686 26.8513C20.741 26.9873 20.829 27.1204 20.9648 27.1482C21.1008 27.1759 21.2339 27.0878 21.2617 26.9519C21.2894 26.8158 21.2015 26.6827 21.0654 26.655ZM14.7871 21.9021C13.9754 21.7369 13.1829 22.2613 13.0176 23.073C12.8524 23.8848 13.3767 24.6773 14.1885 24.8425C15.0002 25.0077 15.7928 24.4834 15.958 23.6716C16.1232 22.8599 15.5988 22.0674 14.7871 21.9021ZM20.166 19.1023C18.8132 18.827 17.4933 19.7008 17.2178 21.0535C16.9424 22.4064 17.816 23.7274 19.1689 24.0027C20.5218 24.2778 21.8419 23.4034 22.1172 22.0505C22.3922 20.6978 21.5187 19.3777 20.166 19.1023ZM10.417 21.7048C10.1432 21.6491 9.87523 21.8256 9.81934 22.0994C9.7636 22.3733 9.94093 22.6413 10.2148 22.697C10.4887 22.7526 10.7558 22.5754 10.8115 22.3015C10.8672 22.0278 10.6906 21.7608 10.417 21.7048ZM14.5439 14.3025C12.6499 13.9173 10.8024 15.1409 10.417 17.0349C10.0317 18.929 11.2544 20.7764 13.1484 21.1619C15.0426 21.5473 16.8909 20.3246 17.2764 18.4304C17.6618 16.5363 16.4381 14.6879 14.5439 14.3025ZM19.2949 16.6873C19.069 16.6413 18.8479 16.7866 18.8018 17.0125C18.7558 17.2384 18.902 17.4596 19.1279 17.5056C19.3539 17.5516 19.5751 17.4055 19.6211 17.1794C19.667 16.9535 19.5207 16.7334 19.2949 16.6873ZM10.0654 14.6541C9.92183 14.6249 9.78124 14.7175 9.75195 14.8611C9.72272 15.0047 9.8163 15.1453 9.95996 15.1746C10.1034 15.2035 10.2431 15.1108 10.2725 14.9675C10.3017 14.8239 10.2091 14.6833 10.0654 14.6541Z" fill="white"/>
<path d="M37.954 6.46448L37.0115 7.38293" stroke="white" stroke-linecap="round"/>
<path d="M39.122 8.14207L37.9535 8.74748" stroke="white" stroke-linecap="round"/>
<path d="M39.2826 10.5297L38.4187 10.5812" stroke="white" stroke-linecap="round"/>
<path d="M39.1745 12.4369L37.9533 11.9464" stroke="white" stroke-linecap="round"/>
<path d="M38.1009 13.9733L37.4887 13.5223" stroke="white" stroke-linecap="round"/>
<path d="M36.5279 15.5135L36.1081 14.7839" stroke="white" stroke-linecap="round"/>
<path d="M34.5214 16.6028L34.3115 15.3037" stroke="white" stroke-linecap="round"/>
<path d="M31.738 16.0184L32.3205 14.8384" stroke="white" stroke-linecap="round"/>
<path d="M29.649 14.9059L30.5062 13.9074" stroke="white" stroke-linecap="round"/>
<path d="M28.649 12.9338L29.8183 12.3301" stroke="white" stroke-linecap="round"/>
<path d="M27.7193 10.8902L29.0318 10.7945" stroke="white" stroke-linecap="round"/>
<path d="M28.1844 8.69573L29.4092 9.17706" stroke="white" stroke-linecap="round"/>
<path d="M29.5894 6.46414L30.5124 7.4022" stroke="white" stroke-linecap="round"/>
<path d="M31.2976 5.53391L31.8501 6.72828" stroke="white" stroke-linecap="round"/>
<path d="M33.4707 4.6033L33.5165 5.91848" stroke="white" stroke-linecap="round"/>
<path d="M35.9858 5.06813L35.5927 6.32402" stroke="white" stroke-linecap="round"/>
<path d="M33.7666 5.99854C36.3359 5.99855 38.4189 8.08155 38.4189 10.6509C38.4187 13.22 36.3358 15.3022 33.7666 15.3022C31.1974 15.3022 29.1145 13.2201 29.1143 10.6509C29.1143 8.08153 31.1973 5.99854 33.7666 5.99854ZM34.8672 14.396C34.7729 14.3768 34.6813 14.4385 34.6621 14.5327C34.6431 14.6269 34.7037 14.7186 34.7979 14.7378C34.892 14.7569 34.9836 14.6961 35.0029 14.6021C35.0221 14.5078 34.9615 14.4152 34.8672 14.396ZM37.1846 12.5347C37.1213 12.5218 37.0588 12.5632 37.0459 12.6265C37.0332 12.6897 37.0745 12.7513 37.1377 12.7642C37.2008 12.777 37.2623 12.7364 37.2754 12.6733C37.2883 12.6101 37.2478 12.5476 37.1846 12.5347ZM34.2637 10.3237C33.8861 10.2469 33.5175 10.4902 33.4404 10.8677C33.3636 11.2453 33.6077 11.6141 33.9854 11.6909C34.3629 11.7676 34.7308 11.5236 34.8076 11.146C34.8843 10.7686 34.641 10.4007 34.2637 10.3237ZM36.7656 9.021C36.1362 8.89298 35.5226 9.2998 35.3945 9.9292C35.2665 10.5586 35.6724 11.1721 36.3018 11.3003C36.9312 11.4284 37.5457 11.0224 37.6738 10.3931C37.8019 9.76363 37.3951 9.14908 36.7656 9.021ZM32.2305 10.2319C32.1031 10.206 31.9782 10.2882 31.9521 10.4155C31.9262 10.543 32.0093 10.6679 32.1367 10.6938C32.264 10.7195 32.3882 10.6366 32.4141 10.5093C32.4397 10.3821 32.3576 10.2579 32.2305 10.2319ZM34.1504 6.78857C33.2692 6.60933 32.4098 7.17889 32.2305 8.06006C32.0514 8.9411 32.62 9.80064 33.501 9.97998C34.382 10.1593 35.2413 9.59036 35.4209 8.70947C35.6002 7.82826 35.0316 6.9679 34.1504 6.78857ZM36.3604 7.89795C36.2553 7.87669 36.1533 7.9443 36.1318 8.04932C36.1104 8.15446 36.1781 8.25741 36.2832 8.27881C36.3883 8.30012 36.4913 8.23157 36.5127 8.12646C36.5338 8.02148 36.4653 7.91932 36.3604 7.89795ZM32.0674 6.95166C32.0005 6.93806 31.9345 6.98151 31.9209 7.04834C31.9076 7.11497 31.9509 7.18027 32.0176 7.19385C32.0844 7.20744 32.1494 7.16394 32.1631 7.09717C32.1767 7.03049 32.1339 6.96547 32.0674 6.95166Z" fill="white"/>
</svg>
