<svg width="17" height="16" viewBox="0 0 17 16" fill="none" xmlns="http://www.w3.org/2000/svg">
<path d="M12.8535 6.78349L8.0574 2.03661C7.83623 1.80996 7.71384 1.50639 7.71661 1.1913C7.71938 0.876207 7.84707 0.574795 8.0722 0.351982C8.29732 0.129169 8.60185 0.0027835 8.92021 4.5429e-05C9.23857 -0.00269264 9.54528 0.118436 9.77428 0.337343L16.643 7.1356C16.7561 7.24695 16.8459 7.37933 16.9072 7.52514C16.9685 7.67095 17 7.82731 17 7.98523C17 8.14315 16.9685 8.29951 16.9072 8.44532C16.8459 8.59113 16.7561 8.72352 16.643 8.83486L9.77428 15.6331C9.66227 15.7479 9.52829 15.8395 9.38015 15.9024C9.23202 15.9654 9.07269 15.9986 8.91147 16C8.75025 16.0013 8.59037 15.9709 8.44115 15.9105C8.29193 15.8501 8.15636 15.7609 8.04235 15.648C7.92835 15.5352 7.83819 15.401 7.77714 15.2533C7.71609 15.1056 7.68537 14.9474 7.68677 14.7878C7.68817 14.6282 7.72167 14.4706 7.7853 14.3239C7.84894 14.1773 7.94144 14.0447 8.0574 13.9339L12.8535 9.18698H1.2142C0.892171 9.18698 0.583336 9.06036 0.35563 8.83499C0.127924 8.60962 0 8.30395 0 7.98523C0 7.66651 0.127924 7.36084 0.35563 7.13547C0.583336 6.9101 0.892171 6.78349 1.2142 6.78349H12.8535Z" fill="white"/>
</svg>
