<svg width="17" height="16" viewBox="0 0 17 16" fill="none" xmlns="http://www.w3.org/2000/svg">
<path d="M4.14652 6.78349L8.9426 2.03661C9.16377 1.80996 9.28616 1.50639 9.28339 1.1913C9.28062 0.876207 9.15293 0.574795 8.9278 0.351982C8.70268 0.129169 8.39815 0.0027835 8.07979 4.5429e-05C7.76143 -0.00269264 7.45472 0.118436 7.22572 0.337343L0.357016 7.1356C0.243871 7.24695 0.154082 7.37933 0.0928119 7.52514C0.0315419 7.67095 9.28651e-08 7.82731 9.28651e-08 7.98523C9.28651e-08 8.14315 0.0315419 8.29951 0.0928119 8.44532C0.154082 8.59113 0.243871 8.72352 0.357016 8.83486L7.22572 15.6331C7.33773 15.7479 7.47171 15.8395 7.61985 15.9024C7.76798 15.9654 7.92731 15.9986 8.08853 16C8.24975 16.0013 8.40963 15.9709 8.55885 15.9105C8.70807 15.8501 8.84364 15.7609 8.95765 15.648C9.07165 15.5352 9.16181 15.401 9.22286 15.2533C9.28391 15.1056 9.31463 14.9474 9.31323 14.7878C9.31183 14.6282 9.27833 14.4706 9.2147 14.3239C9.15106 14.1773 9.05856 14.0447 8.9426 13.9339L4.14652 9.18698H15.7858C16.1078 9.18698 16.4167 9.06036 16.6444 8.83499C16.8721 8.60962 17 8.30395 17 7.98523C17 7.66651 16.8721 7.36084 16.6444 7.13547C16.4167 6.9101 16.1078 6.78349 15.7858 6.78349H4.14652Z" fill="white"/>
</svg>
