<svg width="223" height="40" viewBox="0 0 223 40" fill="none" xmlns="http://www.w3.org/2000/svg">
<path fill-rule="evenodd" clip-rule="evenodd" d="M147.236 23.331V5.47072C147.236 5.24545 147.039 5.05235 146.809 5.05235H138.795C138.795 5.05235 138.565 5.02019 138.5 4.92365C138.434 4.85929 138.368 4.73058 138.368 4.63403V0.418316C138.368 0.193051 138.565 0 138.795 0C146.152 0 153.476 0 160.832 0C160.964 0 161.062 0.0321591 161.128 0.128701C161.194 0.225244 161.259 0.321774 161.259 0.418316V4.63403C161.259 4.8593 161.062 5.05235 160.832 5.05235H152.819C152.589 5.05235 152.392 5.24545 152.392 5.47072V23.331C152.392 23.331 152.359 23.5563 152.261 23.6207C152.195 23.685 152.063 23.7494 151.965 23.7494H147.663C147.433 23.7494 147.236 23.5563 147.236 23.331Z" fill="black"/>
<path fill-rule="evenodd" clip-rule="evenodd" d="M191.077 23.7494H169.039C169.039 23.7494 168.809 23.7172 168.744 23.6207C168.678 23.5241 168.612 23.4276 168.612 23.331V19.1154C168.612 18.8901 168.809 18.697 169.039 18.697H191.077C191.077 18.697 191.306 18.7292 191.372 18.8257C191.438 18.8901 191.503 19.0188 191.503 19.1154V23.331C191.503 23.5563 191.306 23.7494 191.077 23.7494ZM191.077 14.3848H169.039C169.039 14.3848 168.809 14.3526 168.744 14.256C168.678 14.1917 168.612 14.063 168.612 13.9664V9.75076C168.612 9.5255 168.809 9.3324 169.039 9.3324H191.077C191.077 9.3324 191.306 9.3646 191.372 9.46115C191.438 9.55769 191.503 9.65422 191.503 9.75076V13.9664C191.503 14.1917 191.306 14.3848 191.077 14.3848ZM191.077 5.05235H169.039C169.039 5.05235 168.809 5.02019 168.744 4.92365C168.678 4.82711 168.612 4.73058 168.612 4.63403V0.418316C168.612 0.193051 168.809 0 169.039 0H191.077C191.077 0 191.306 0.0321591 191.372 0.128701C191.438 0.193063 191.503 0.321774 191.503 0.418316V4.63403C191.503 4.8593 191.306 5.05235 191.077 5.05235Z" fill="black"/>
<path fill-rule="evenodd" clip-rule="evenodd" d="M80.8596 6.8223L71.6966 23.5241C71.6966 23.5241 71.4995 23.7494 71.3353 23.7494H65.5551C65.5551 23.7494 65.2595 23.685 65.1938 23.5563C65.1281 23.4276 65.1281 23.2667 65.1938 23.138L77.7396 0.22524C77.7396 0.22524 77.9367 0 78.1009 0H84.3409C84.3409 0 84.6365 0.0643359 84.7022 0.22524L97.248 23.138C97.248 23.138 97.3137 23.4276 97.248 23.5563C97.1823 23.685 97.0509 23.7494 96.8867 23.7494H91.1065C91.1065 23.7494 90.8109 23.685 90.7452 23.5241L81.615 6.8223C81.615 6.8223 81.418 6.59706 81.2537 6.59706C81.0895 6.59706 80.9582 6.6614 80.8925 6.8223H80.8596Z" fill="black"/>
<path fill-rule="evenodd" clip-rule="evenodd" d="M126.086 15.6076H110.289C110.059 15.6076 109.862 15.8007 109.862 16.026V23.331C109.862 23.5563 109.665 23.7494 109.435 23.7494H105.133C104.903 23.7494 104.706 23.5563 104.706 23.331V10.9736C104.706 10.7483 104.903 10.5553 105.133 10.5553H127.4C127.4 10.5553 127.663 10.6197 127.729 10.7162C127.794 10.8127 127.827 10.9415 127.794 11.0702L126.513 15.2859C126.448 15.4468 126.284 15.5755 126.119 15.5755L126.086 15.6076ZM129.305 5.05235H105.166C104.936 5.05235 104.739 4.8593 104.739 4.63403V0.418316C104.739 0.193051 104.936 0 105.166 0H130.586C130.586 0 130.849 0.0643713 130.914 0.160914C130.98 0.257456 131.013 0.386132 130.98 0.514855L129.699 4.73057C129.633 4.92366 129.469 5.02019 129.305 5.02019V5.05235Z" fill="black"/>
<path fill-rule="evenodd" clip-rule="evenodd" d="M7.94786 11.4242L19.4755 0.128701C19.4755 0.128701 19.6398 0 19.7711 0H25.8798C26.044 0 26.2082 0.0965481 26.2739 0.257452C26.3396 0.418356 26.2739 0.579257 26.1754 0.70798L15.2389 11.4242C15.2389 11.4242 15.0747 11.8425 15.2389 12.0034L26.1754 22.7196C26.1754 22.7196 26.3396 23.0092 26.2739 23.1701C26.2082 23.331 26.044 23.4276 25.8798 23.4276H19.7711C19.7711 23.4276 19.5412 23.3954 19.4755 23.2988L7.94786 12.0034C7.94786 12.0034 7.78365 11.5851 7.94786 11.4242ZM0 23.331V0.450528C0 0.450528 0.0328427 0.225275 0.13137 0.160914C0.197055 0.096552 0.328424 0.0321631 0.426951 0.0321631H4.72931C4.9592 0.0321631 5.15626 0.225263 5.15626 0.450528V23.7494H0.426951C0.197054 23.7494 0 23.5563 0 23.331Z" fill="black"/>
<path fill-rule="evenodd" clip-rule="evenodd" d="M51.6269 17.1845L57.6042 23.0414C57.6042 23.0414 57.7684 23.331 57.7028 23.492C57.6371 23.6529 57.4729 23.7494 57.3086 23.7494H51.2C51.2 23.7494 50.9701 23.7172 50.9044 23.6207C47.1603 19.952 43.4163 16.3156 39.6723 12.647C39.5409 12.5183 39.5081 12.3574 39.5737 12.1965C39.6394 12.0356 39.7708 11.939 39.9679 11.939L49.1309 11.8747C51.0357 11.8747 52.6122 10.33 52.6122 8.4635C52.6122 6.59702 51.0357 5.05235 49.1309 5.05235H34.0891C33.8592 5.05235 33.6621 4.8593 33.6621 4.63403V0.418316C33.6621 0.193051 33.8592 0 34.0891 0H49.1309C53.8602 0 57.7684 3.79729 57.7684 8.4635C57.7684 12.1965 55.2724 15.3824 51.824 16.5087C51.6926 16.5409 51.5941 16.6696 51.5612 16.7984C51.5284 16.9271 51.5612 17.088 51.6598 17.1845H51.6269Z" fill="black"/>
<path fill-rule="evenodd" clip-rule="evenodd" d="M4.59876 39.9035H3.41644V37.3934H1.34737V39.9035H0.165039V33.9179H1.34737V36.3637H3.41644V33.9179H4.59876V39.9035ZM17.3745 34.465C17.7357 34.8189 17.9328 35.2695 17.9328 35.7844C17.9328 36.2993 17.7686 36.7498 17.3745 37.1038C17.0132 37.4578 16.5206 37.6509 15.8966 37.6509H14.7142V39.9035H13.5319V33.9179H15.8966C16.5206 33.9179 17.0132 34.111 17.3745 34.465ZM16.4877 36.3958C16.4877 36.3958 16.7176 36.0418 16.7176 35.8165C16.7176 35.5913 16.6519 35.3661 16.4877 35.2052C16.3235 35.0442 16.1265 34.9799 15.8309 34.9799H14.7142V36.6211H15.8309C16.0936 36.6211 16.3235 36.5567 16.4877 36.3958ZM30.4129 39.9035H26.439V33.9179H27.6213V38.8738H30.3801V39.9035H30.4129ZM49.1331 38.0692C49.0345 38.6807 48.7718 39.1633 48.3777 39.4851C47.9836 39.807 47.491 39.9679 46.8998 39.9679C46.2429 39.9679 45.7175 39.7426 45.2577 39.3243C44.9621 39.0347 44.7979 38.745 44.7322 38.4232C44.6665 38.1014 44.6337 37.5865 44.6337 36.9107C44.6337 36.2349 44.6665 35.72 44.7322 35.3982C44.7979 35.0764 44.9621 34.7546 45.2577 34.4972C45.6846 34.0788 46.2429 33.8535 46.8998 33.8535C47.491 33.8535 47.9836 34.0144 48.3777 34.3363C48.7718 34.6581 49.0345 35.1408 49.1331 35.7522H47.9179C47.7865 35.173 47.4253 34.9155 46.8998 34.9155C46.5714 34.9155 46.3086 35.012 46.1444 35.2373C46.0459 35.366 45.9474 35.527 45.9145 35.7522C45.8817 35.9775 45.8488 36.3637 45.8488 36.9107C45.8488 37.4578 45.8488 37.844 45.9145 38.0692C45.9474 38.2945 46.0459 38.4554 46.1444 38.5841C46.3415 38.7772 46.5714 38.9059 46.8998 38.9059C47.4581 38.9059 47.7865 38.6163 47.9179 38.0692H49.1331ZM61.7774 35.4304C61.8431 35.7522 61.8759 36.2671 61.8759 36.9429C61.8759 37.6187 61.8431 38.1014 61.7774 38.4554C61.7117 38.7772 61.5475 39.099 61.2519 39.3564C60.825 39.7748 60.2667 40 59.6098 40C58.953 40 58.3946 39.7748 57.9677 39.3564C57.6721 39.0668 57.5079 38.7772 57.4422 38.4554C57.3765 38.1336 57.3437 37.6187 57.3437 36.9429C57.3437 36.2671 57.3437 35.7522 57.4422 35.4304C57.5079 35.1086 57.6721 34.7868 57.9677 34.5293C58.3946 34.111 58.953 33.8857 59.6098 33.8857C60.2667 33.8857 60.825 34.0788 61.2519 34.5293C61.5475 34.819 61.7117 35.1086 61.7774 35.4304ZM60.6936 36.9107C60.6936 36.3637 60.6936 35.9775 60.6279 35.7522C60.5951 35.527 60.4966 35.366 60.398 35.2373C60.201 35.012 59.9711 34.9155 59.6427 34.9155C59.3142 34.9155 59.0843 35.012 58.8873 35.2373C58.7559 35.366 58.6902 35.527 58.6574 35.7522C58.6245 35.9775 58.5917 36.3637 58.5917 36.9107C58.5917 37.4578 58.5917 37.844 58.6574 38.0692C58.6902 38.2945 58.7887 38.4554 58.8873 38.5841C59.0843 38.8094 59.3471 38.9059 59.6427 38.9059C59.9382 38.9059 60.201 38.8094 60.398 38.5841C60.4966 38.4554 60.5951 38.2623 60.6279 38.0692C60.6608 37.844 60.6936 37.4578 60.6936 36.9107ZM76.1624 39.9035H74.9801V36.428L73.8306 38.7128H73.0095L71.8272 36.428V39.9035H70.6449V33.9179H71.8272L73.4365 37.1682L75.0129 33.9179H76.1952V39.9035H76.1624ZM88.9381 34.465C89.2993 34.8189 89.4964 35.2695 89.4964 35.7844C89.4964 36.2993 89.2993 36.7498 88.9381 37.1038C88.5768 37.4578 88.0842 37.6509 87.4602 37.6509H86.2778V39.9035H85.0955V33.9179H87.4602C88.0842 33.9179 88.5768 34.111 88.9381 34.465ZM88.0513 36.3958C88.0513 36.3958 88.2812 36.0418 88.2812 35.8165C88.2812 35.5913 88.2155 35.3661 88.0513 35.2052C87.8871 35.0442 87.6901 34.9799 87.3945 34.9799H86.2778V36.6211H87.3945C87.6572 36.6211 87.8871 36.5567 88.0513 36.3958ZM102.272 39.9035H101.024L100.663 38.8415H98.4952L98.134 39.9035H96.8859L99.1192 33.9179H100.039L102.272 39.9035ZM100.367 37.8761L99.6119 35.6878L98.8565 37.8761H100.367ZM114.752 38.0692C114.654 38.6807 114.391 39.1633 113.997 39.4851C113.603 39.807 113.11 39.9679 112.519 39.9679C111.862 39.9679 111.337 39.7426 110.877 39.3243C110.581 39.0347 110.417 38.745 110.351 38.4232C110.286 38.1014 110.253 37.5865 110.253 36.9107C110.253 36.2349 110.286 35.72 110.351 35.3982C110.417 35.0764 110.581 34.7546 110.877 34.4972C111.304 34.0788 111.862 33.8535 112.519 33.8535C113.11 33.8535 113.603 34.0144 113.997 34.3363C114.391 34.6581 114.654 35.1408 114.752 35.7522H113.537C113.406 35.173 113.044 34.9155 112.519 34.9155C112.191 34.9155 111.928 35.012 111.764 35.2373C111.665 35.366 111.566 35.527 111.534 35.7522C111.501 35.9775 111.468 36.3637 111.468 36.9107C111.468 37.4578 111.468 37.844 111.534 38.0692C111.566 38.2945 111.665 38.4554 111.764 38.5841C111.961 38.7772 112.191 38.9059 112.519 38.9059C113.077 38.9059 113.406 38.6163 113.537 38.0692H114.752ZM127.134 34.9799H125.525V39.9357H124.342V34.9799H122.733V33.9501H127.101V34.9799H127.134ZM145.526 38.1336C145.526 38.7128 145.329 39.1312 144.902 39.453C144.475 39.7748 143.949 39.9357 143.259 39.9357C142.767 39.9357 142.34 39.8713 142.011 39.7426C141.65 39.6139 141.322 39.4208 141.026 39.1312L141.782 38.391C142.11 38.7128 142.603 38.9059 143.259 38.9059C143.621 38.9059 143.883 38.8416 144.08 38.7128C144.278 38.5841 144.343 38.391 144.343 38.1658C144.343 37.9727 144.278 37.7796 144.146 37.683C144.048 37.5865 143.851 37.5221 143.588 37.49L142.865 37.3934C142.34 37.3291 141.946 37.1682 141.683 36.9107C141.387 36.6211 141.256 36.2349 141.256 35.72C141.256 35.1729 141.453 34.7224 141.814 34.4006C142.208 34.0788 142.701 33.8857 143.358 33.8857C144.179 33.8857 144.836 34.111 145.329 34.5937L144.573 35.3339C144.278 35.0442 143.883 34.9155 143.325 34.9155C143.03 34.9155 142.8 34.9799 142.635 35.1408C142.471 35.2695 142.406 35.4626 142.406 35.6878C142.406 35.8809 142.471 36.0097 142.57 36.1062C142.701 36.2349 142.898 36.2993 143.128 36.3314L143.851 36.428C144.376 36.4923 144.77 36.6533 145.033 36.9107C145.361 37.2004 145.493 37.6187 145.493 38.1658L145.526 38.1336ZM158.236 33.9179L156.396 37.4578V39.9035H155.214V37.4578L153.375 33.9179H154.656L155.805 36.3314L156.922 33.9179H158.203H158.236ZM170.42 38.1336C170.42 38.7128 170.223 39.1312 169.796 39.453C169.369 39.7748 168.844 39.9357 168.154 39.9357C167.661 39.9357 167.234 39.8713 166.906 39.7426C166.545 39.6139 166.216 39.4208 165.954 39.1312L166.709 38.391C167.037 38.7128 167.53 38.9059 168.187 38.9059C168.548 38.9059 168.811 38.8416 169.008 38.7128C169.205 38.5841 169.271 38.391 169.271 38.1658C169.271 37.9727 169.205 37.7796 169.074 37.683C168.975 37.5865 168.778 37.5221 168.515 37.49L167.793 37.3934C167.267 37.3291 166.873 37.1682 166.61 36.9107C166.315 36.6211 166.183 36.2349 166.183 35.72C166.183 35.1729 166.38 34.7224 166.775 34.4006C167.169 34.0788 167.661 33.8857 168.318 33.8857C169.139 33.8857 169.796 34.111 170.289 34.5937L169.533 35.3339C169.238 35.0442 168.844 34.9155 168.285 34.9155C167.99 34.9155 167.76 34.9799 167.596 35.1408C167.431 35.2695 167.366 35.4626 167.366 35.6878C167.366 35.8809 167.431 36.0097 167.53 36.1062C167.661 36.2349 167.858 36.2993 168.088 36.3314L168.811 36.428C169.336 36.4923 169.73 36.6533 169.993 36.9107C170.322 37.2004 170.453 37.6187 170.453 38.1658L170.42 38.1336ZM182.999 34.9799H181.389V39.9357H180.207V34.9799H178.598V33.9501H182.966V34.9799H182.999ZM195.479 39.9035H191.472V33.9179H195.479V34.9477H192.654V36.3637H195.052V37.3934H192.654V38.8415H195.479V39.8713V39.9035ZM209.7 39.9035H208.517V36.428L207.335 38.7128H206.514L205.332 36.428V39.9035H204.149V33.9179H205.332L206.941 37.1682L208.517 33.9179H209.7V39.9035ZM222.574 38.1336C222.574 38.7128 222.377 39.1312 221.95 39.453C221.523 39.7748 220.997 39.9357 220.308 39.9357C219.815 39.9357 219.388 39.8713 219.06 39.7426C218.698 39.6139 218.37 39.4208 218.074 39.1312L218.83 38.391C219.158 38.7128 219.651 38.9059 220.308 38.9059C220.669 38.9059 220.932 38.8416 221.129 38.7128C221.326 38.5841 221.392 38.391 221.392 38.1658C221.392 37.9727 221.326 37.7796 221.194 37.683C221.096 37.5865 220.899 37.5221 220.636 37.49L219.914 37.3934C219.388 37.3291 218.994 37.1682 218.731 36.9107C218.436 36.6211 218.304 36.2349 218.304 35.72C218.304 35.1729 218.501 34.7224 218.863 34.4006C219.257 34.0788 219.749 33.8857 220.406 33.8857C221.227 33.8857 221.884 34.111 222.377 34.5937L221.621 35.3339C221.326 35.0442 220.932 34.9155 220.373 34.9155C220.078 34.9155 219.848 34.9799 219.684 35.1408C219.52 35.2695 219.454 35.4626 219.454 35.6878C219.454 35.8809 219.52 36.0097 219.618 36.1062C219.749 36.2349 219.946 36.2993 220.176 36.3314L220.899 36.428C221.424 36.4923 221.818 36.6533 222.081 36.9107C222.41 37.2004 222.541 37.6187 222.541 38.1658L222.574 38.1336Z" fill="black"/>
<path fill-rule="evenodd" clip-rule="evenodd" d="M216.858 17.1845L222.836 23.0414C222.836 23.0414 223 23.331 222.934 23.492C222.869 23.6529 222.704 23.7494 222.54 23.7494H216.431C216.431 23.7494 216.202 23.7172 216.136 23.6207C212.392 19.952 208.648 16.3156 204.904 12.647C204.772 12.5183 204.74 12.3574 204.805 12.1965C204.871 12.0356 205.002 11.939 205.199 11.939L214.362 11.8747C216.267 11.8747 217.844 10.33 217.844 8.4635C217.844 6.59702 216.267 5.05235 214.362 5.05235H199.321C199.091 5.05235 198.894 4.8593 198.894 4.63403V0.418316C198.894 0.193051 199.091 0 199.321 0H214.362C219.092 0 223 3.79729 223 8.4635C223 12.1965 220.504 15.3824 217.055 16.5087C216.924 16.5409 216.826 16.6696 216.793 16.7984C216.76 16.9271 216.793 17.088 216.891 17.1845H216.858Z" fill="black"/>
</svg>
