<svg width="24" height="25" viewBox="0 0 24 25" fill="none" xmlns="http://www.w3.org/2000/svg">
<path d="M12 24.9052C18.6274 24.9052 24 19.5196 24 12.8761C24 6.23255 18.6274 0.846924 12 0.846924C5.37258 0.846924 0 6.23255 0 12.8761C0 19.5196 5.37258 24.9052 12 24.9052Z" fill="#ADADAD"/>
<path fill-rule="evenodd" clip-rule="evenodd" d="M5.43943 12.7447C8.93476 11.2082 11.2712 10.2152 12.4301 9.72802C15.7572 8.34148 16.4488 8.0979 16.8974 8.0979C16.9908 8.0979 17.2151 8.11664 17.3647 8.22906C17.4768 8.32274 17.5142 8.4539 17.5329 8.54759C17.5516 8.64127 17.5703 8.84738 17.5516 9.01601C17.3647 10.9084 16.5983 15.5365 16.1871 17.6538C16.0189 18.5531 15.6824 18.8529 15.3647 18.8904C14.6731 18.9466 14.131 18.422 13.4581 17.991C12.4114 17.2978 11.8133 16.8668 10.7852 16.1923C9.60765 15.4053 10.374 14.9744 11.0469 14.2811C11.2151 14.0937 14.2992 11.3019 14.3553 11.0396C14.3553 11.0021 14.374 10.8897 14.2992 10.8335C14.2245 10.7773 14.131 10.796 14.0563 10.8148C13.9441 10.8335 12.2619 11.9577 8.99083 14.1687C8.50485 14.5059 8.07494 14.6558 7.68242 14.6558C7.25251 14.6558 6.43008 14.4123 5.81326 14.2062C5.0656 13.9626 4.46747 13.8314 4.52354 13.4192C4.57962 13.1944 4.87868 12.9695 5.43943 12.7447Z" fill="white"/>
</svg>
