<svg aria-hidden="true" xmlns="http://www.w3.org/2000/svg" xmlns:xlink="http://www.w3.org/1999/xlink"><symbol viewBox="0 0 40 40" fill="none" id="icon-bact" xmlns="http://www.w3.org/2000/svg">
<path d="M22.7187 13.6046L20.6929 15.5788" stroke="currentColor" stroke-width="1.4" stroke-linecap="round"/>
<path d="M25.2307 17.2119L22.7191 18.5132" stroke="currentColor" stroke-width="1.4" stroke-linecap="round"/>
<path d="M25.5742 22.3433L23.7171 22.4541" stroke="currentColor" stroke-width="1.4" stroke-linecap="round"/>
<path d="M25.3436 26.4418L22.7188 25.3875" stroke="currentColor" stroke-width="1.4" stroke-linecap="round"/>
<path d="M23.0349 29.745L21.719 28.7756" stroke="currentColor" stroke-width="1.4" stroke-linecap="round"/>
<path d="M19.6526 33.0553L18.7502 31.487" stroke="currentColor" stroke-width="1.4" stroke-linecap="round"/>
<path d="M15.3412 35.3965L14.8899 32.604" stroke="currentColor" stroke-width="1.4" stroke-linecap="round"/>
<path d="M9.35815 34.14L10.6102 31.6035" stroke="currentColor" stroke-width="1.4" stroke-linecap="round"/>
<path d="M4.86658 31.75L6.70918 29.6037" stroke="currentColor" stroke-width="1.4" stroke-linecap="round"/>
<path d="M2.71843 27.5114L5.23191 26.2137" stroke="currentColor" stroke-width="1.4" stroke-linecap="round"/>
<path d="M0.718557 23.1184L3.53978 22.9126" stroke="currentColor" stroke-width="1.4" stroke-linecap="round"/>
<path d="M1.71876 18.4015L4.35148 19.4361" stroke="currentColor" stroke-width="1.4" stroke-linecap="round"/>
<path d="M4.73883 13.6041L6.72274 15.6205" stroke="currentColor" stroke-width="1.4" stroke-linecap="round"/>
<path d="M8.41089 11.6048L9.59853 14.1721" stroke="currentColor" stroke-width="1.4" stroke-linecap="round"/>
<path d="M13.0832 9.60401L13.1817 12.431" stroke="currentColor" stroke-width="1.4" stroke-linecap="round"/>
<path d="M18.4894 10.6041L17.6443 13.3037" stroke="currentColor" stroke-width="1.4" stroke-linecap="round"/>
<path d="M13.7188 12.6042C19.2416 12.6042 23.7188 17.0814 23.7188 22.6042C23.7188 28.1271 19.2416 32.6042 13.7188 32.6042C8.1959 32.6042 3.71875 28.1271 3.71875 22.6042C3.71875 17.0814 8.1959 12.6042 13.7188 12.6042ZM16.085 30.657C15.8825 30.6158 15.685 30.7466 15.6436 30.949C15.6023 31.1516 15.7329 31.3501 15.9355 31.3914C16.1381 31.4324 16.3357 31.3009 16.377 31.0984C16.418 30.8959 16.2874 30.6983 16.085 30.657ZM21.0654 26.655C20.9294 26.6274 20.7962 26.7153 20.7686 26.8513C20.741 26.9873 20.829 27.1204 20.9648 27.1482C21.1008 27.1759 21.2339 27.0878 21.2617 26.9519C21.2894 26.8158 21.2015 26.6827 21.0654 26.655ZM14.7871 21.9021C13.9754 21.7369 13.1829 22.2613 13.0176 23.073C12.8524 23.8848 13.3767 24.6773 14.1885 24.8425C15.0002 25.0077 15.7928 24.4834 15.958 23.6716C16.1232 22.8599 15.5988 22.0674 14.7871 21.9021ZM20.166 19.1023C18.8132 18.827 17.4933 19.7008 17.2178 21.0535C16.9424 22.4064 17.816 23.7274 19.1689 24.0027C20.5218 24.2778 21.8419 23.4034 22.1172 22.0505C22.3922 20.6978 21.5187 19.3777 20.166 19.1023ZM10.417 21.7048C10.1432 21.6491 9.87523 21.8256 9.81934 22.0994C9.7636 22.3733 9.94093 22.6413 10.2148 22.697C10.4887 22.7526 10.7558 22.5754 10.8115 22.3015C10.8672 22.0278 10.6906 21.7608 10.417 21.7048ZM14.5439 14.3025C12.6499 13.9173 10.8024 15.1409 10.417 17.0349C10.0317 18.929 11.2544 20.7764 13.1484 21.1619C15.0426 21.5473 16.8909 20.3246 17.2764 18.4304C17.6618 16.5363 16.4381 14.6879 14.5439 14.3025ZM19.2949 16.6873C19.069 16.6413 18.8479 16.7866 18.8018 17.0125C18.7558 17.2384 18.902 17.4596 19.1279 17.5056C19.3539 17.5516 19.5751 17.4055 19.6211 17.1794C19.667 16.9535 19.5207 16.7334 19.2949 16.6873ZM10.0654 14.6541C9.92183 14.6249 9.78124 14.7175 9.75195 14.8611C9.72272 15.0047 9.8163 15.1453 9.95996 15.1746C10.1034 15.2035 10.2431 15.1108 10.2725 14.9675C10.3017 14.8239 10.2091 14.6833 10.0654 14.6541Z" fill="currentColor"/>
<path d="M37.954 6.46448L37.0115 7.38293" stroke="currentColor" stroke-linecap="round"/>
<path d="M39.122 8.14207L37.9535 8.74748" stroke="currentColor" stroke-linecap="round"/>
<path d="M39.2826 10.5297L38.4187 10.5812" stroke="currentColor" stroke-linecap="round"/>
<path d="M39.1745 12.4369L37.9533 11.9464" stroke="currentColor" stroke-linecap="round"/>
<path d="M38.1009 13.9733L37.4887 13.5223" stroke="currentColor" stroke-linecap="round"/>
<path d="M36.5279 15.5135L36.1081 14.7839" stroke="currentColor" stroke-linecap="round"/>
<path d="M34.5214 16.6028L34.3115 15.3037" stroke="currentColor" stroke-linecap="round"/>
<path d="M31.738 16.0184L32.3205 14.8384" stroke="currentColor" stroke-linecap="round"/>
<path d="M29.649 14.9059L30.5062 13.9074" stroke="currentColor" stroke-linecap="round"/>
<path d="M28.649 12.9338L29.8183 12.3301" stroke="currentColor" stroke-linecap="round"/>
<path d="M27.7193 10.8902L29.0318 10.7945" stroke="currentColor" stroke-linecap="round"/>
<path d="M28.1844 8.69573L29.4092 9.17706" stroke="currentColor" stroke-linecap="round"/>
<path d="M29.5894 6.46414L30.5124 7.4022" stroke="currentColor" stroke-linecap="round"/>
<path d="M31.2976 5.53391L31.8501 6.72828" stroke="currentColor" stroke-linecap="round"/>
<path d="M33.4707 4.6033L33.5165 5.91848" stroke="currentColor" stroke-linecap="round"/>
<path d="M35.9858 5.06813L35.5927 6.32402" stroke="currentColor" stroke-linecap="round"/>
<path d="M33.7666 5.99854C36.3359 5.99855 38.4189 8.08155 38.4189 10.6509C38.4187 13.22 36.3358 15.3022 33.7666 15.3022C31.1974 15.3022 29.1145 13.2201 29.1143 10.6509C29.1143 8.08153 31.1973 5.99854 33.7666 5.99854ZM34.8672 14.396C34.7729 14.3768 34.6813 14.4385 34.6621 14.5327C34.6431 14.6269 34.7037 14.7186 34.7979 14.7378C34.892 14.7569 34.9836 14.6961 35.0029 14.6021C35.0221 14.5078 34.9615 14.4152 34.8672 14.396ZM37.1846 12.5347C37.1213 12.5218 37.0588 12.5632 37.0459 12.6265C37.0332 12.6897 37.0745 12.7513 37.1377 12.7642C37.2008 12.777 37.2623 12.7364 37.2754 12.6733C37.2883 12.6101 37.2478 12.5476 37.1846 12.5347ZM34.2637 10.3237C33.8861 10.2469 33.5175 10.4902 33.4404 10.8677C33.3636 11.2453 33.6077 11.6141 33.9854 11.6909C34.3629 11.7676 34.7308 11.5236 34.8076 11.146C34.8843 10.7686 34.641 10.4007 34.2637 10.3237ZM36.7656 9.021C36.1362 8.89298 35.5226 9.2998 35.3945 9.9292C35.2665 10.5586 35.6724 11.1721 36.3018 11.3003C36.9312 11.4284 37.5457 11.0224 37.6738 10.3931C37.8019 9.76363 37.3951 9.14908 36.7656 9.021ZM32.2305 10.2319C32.1031 10.206 31.9782 10.2882 31.9521 10.4155C31.9262 10.543 32.0093 10.6679 32.1367 10.6938C32.264 10.7195 32.3882 10.6366 32.4141 10.5093C32.4397 10.3821 32.3576 10.2579 32.2305 10.2319ZM34.1504 6.78857C33.2692 6.60933 32.4098 7.17889 32.2305 8.06006C32.0514 8.9411 32.62 9.80064 33.501 9.97998C34.382 10.1593 35.2413 9.59036 35.4209 8.70947C35.6002 7.82826 35.0316 6.9679 34.1504 6.78857ZM36.3604 7.89795C36.2553 7.87669 36.1533 7.9443 36.1318 8.04932C36.1104 8.15446 36.1781 8.25741 36.2832 8.27881C36.3883 8.30012 36.4913 8.23157 36.5127 8.12646C36.5338 8.02148 36.4653 7.91932 36.3604 7.89795ZM32.0674 6.95166C32.0005 6.93806 31.9345 6.98151 31.9209 7.04834C31.9076 7.11497 31.9509 7.18027 32.0176 7.19385C32.0844 7.20744 32.1494 7.16394 32.1631 7.09717C32.1767 7.03049 32.1339 6.96547 32.0674 6.95166Z" fill="currentColor"/>
</symbol><symbol viewBox="0 0 24 24" fill="none" id="icon-cart" xmlns="http://www.w3.org/2000/svg">
<path d="M4 16V4H2V2H5C5.26522 2 5.51957 2.10536 5.70711 2.29289C5.89464 2.48043 6 2.73478 6 3V15H18.438L20.438 7H8V5H21.72C21.872 5 22.022 5.03466 22.1586 5.10134C22.2952 5.16801 22.4148 5.26495 22.5083 5.38479C22.6019 5.50462 22.6668 5.6442 22.6983 5.79291C22.7298 5.94162 22.7269 6.09555 22.69 6.243L20.19 16.243C20.1358 16.4592 20.011 16.6512 19.8352 16.7883C19.6595 16.9255 19.4429 17 19.22 17H5C4.73478 17 4.48043 16.8946 4.29289 16.7071C4.10536 16.5196 4 16.2652 4 16ZM6 23C5.46957 23 4.96086 22.7893 4.58579 22.4142C4.21071 22.0391 4 21.5304 4 21C4 20.4696 4.21071 19.9609 4.58579 19.5858C4.96086 19.2107 5.46957 19 6 19C6.53043 19 7.03914 19.2107 7.41421 19.5858C7.78929 19.9609 8 20.4696 8 21C8 21.5304 7.78929 22.0391 7.41421 22.4142C7.03914 22.7893 6.53043 23 6 23ZM18 23C17.4696 23 16.9609 22.7893 16.5858 22.4142C16.2107 22.0391 16 21.5304 16 21C16 20.4696 16.2107 19.9609 16.5858 19.5858C16.9609 19.2107 17.4696 19 18 19C18.5304 19 19.0391 19.2107 19.4142 19.5858C19.7893 19.9609 20 20.4696 20 21C20 21.5304 19.7893 22.0391 19.4142 22.4142C19.0391 22.7893 18.5304 23 18 23Z" fill="currentColor"/>
</symbol><symbol viewBox="0 0 24 24" fill="none" id="icon-close" xmlns="http://www.w3.org/2000/svg">
<path d="M19.9999 19.9999L12 12M12 12L4 4M12 12L20 4M12 12L4 20" stroke="currentColor" stroke-width="2" stroke-linecap="round" stroke-linejoin="round"/>
</symbol><symbol viewBox="0 0 20 20" fill="none" id="icon-down" xmlns="http://www.w3.org/2000/svg">
<path d="M6 8L10.0007 12L14 8" stroke="currentColor" stroke-width="1.4" stroke-linecap="round" stroke-linejoin="round"/>
</symbol><symbol viewBox="0 0 41 41" fill="none" id="icon-drop" xmlns="http://www.w3.org/2000/svg">
<path d="M21.8057 17C21.1359 19.0955 19.4526 20.771 17.3057 21.5M17.3057 26C12.3432 26 8.30566 22.1974 8.30566 17.5234C8.30566 11 17.3058 2 17.3058 2C17.3058 2 26.3057 11 26.3057 17.5234C26.3057 22.1975 22.2683 26 17.3057 26Z" stroke="currentColor" stroke-width="1.4" stroke-linecap="round" stroke-linejoin="round"/>
<path d="M13.3057 39L21.3057 39" stroke="currentColor" stroke-width="1.4" stroke-linecap="round"/>
<path d="M5.30575 24.2381L16.3675 35.3001C16.7551 35.6878 17.3827 35.6911 17.7743 35.3074L35.6947 17.754M35.6947 17.754V24.2381M35.6947 17.754L29.9121 17" stroke="currentColor" stroke-width="1.4" stroke-linecap="round"/>
</symbol><symbol viewBox="0 0 41 41" fill="none" id="icon-fire" xmlns="http://www.w3.org/2000/svg">
<path d="M13.3057 38.875L21.3057 38.875" stroke="currentColor" stroke-width="1.4" stroke-linecap="round"/>
<path d="M8 16.7276C8.00003 13.9304 8.70976 11.2985 9.96289 9.00591L10.2207 8.55181C10.4106 8.21129 10.6125 7.89426 10.8262 7.57721C11.1112 7.14258 11.7639 7.29577 11.8945 7.78912C11.9657 8.04734 12.0141 8.18807 12.1328 8.42291C12.7859 9.98508 14.2818 11.0771 16.1104 11.0772C18.4801 11.0772 20.0588 9.23683 20.1553 6.92194L20.1602 6.69635C20.1602 5.5547 19.9741 4.29657 19.7773 3.25984L20.2998 2.70711L20.9795 2.56843C21.9323 3.50645 22.7877 4.53808 23.5439 5.63874C25.717 8.822 27 12.6281 27 16.7276C27 21.9195 22.7488 26.125 17.5 26.125V24.7246C21.9899 24.7246 25.5996 21.132 25.5996 16.7276C25.5996 12.9261 24.4114 9.3933 22.3877 6.42877V6.4278C22.0996 6.00866 21.7968 5.60097 21.4795 5.20612C21.528 5.7023 21.5596 6.20618 21.5596 6.69635C21.5595 9.73318 19.4771 12.4776 16.1104 12.4776C13.9766 12.4775 12.1806 11.3448 11.1953 9.669C10.0495 11.762 9.40042 14.1669 9.40039 16.7276C9.40039 21.132 13.0101 24.7246 17.5 24.7246V26.125C12.2512 26.125 8 21.9195 8 16.7276ZM19.6973 2.83113C19.5789 2.26755 20.2788 1.89196 20.6943 2.29109C20.7907 2.38217 20.8851 2.47547 20.9795 2.56843L20.2998 2.70711L19.7773 3.25984C19.7494 3.11253 19.7253 2.9685 19.6973 2.83113Z" fill="currentColor"/>
<path d="M14 20.1054C14 18.6449 15.0369 17.59 16.7959 17.1786L17.1572 17.1053C18.8089 16.8168 20.5057 16.2106 21.6855 15.2586C22.0001 15.0087 22.5165 15.1245 22.6064 15.4803C22.8647 16.4609 22.9999 17.48 23 18.5087C23.0112 21.057 20.5956 23.1249 17.6181 23.125V21.7246C20.0368 21.7245 21.6063 20.0876 21.5996 18.5155V18.5087C21.5996 18.0253 21.5641 17.5444 21.498 17.0692C20.3411 17.7328 19.0054 18.17 17.7334 18.4218L17.3984 18.4843C16.5975 18.6245 16.0882 18.8955 15.7988 19.1688C15.535 19.4181 15.4004 19.714 15.4004 20.1054C15.4004 20.778 16.1424 21.7246 17.6181 21.7246V23.125L17.4316 23.1211C15.5803 23.0432 14.0988 21.8101 14.0049 20.2616L14 20.1054Z" fill="currentColor"/>
<path d="M5.30575 24.1131L16.3675 35.1751C16.7551 35.5628 17.3827 35.5661 17.7743 35.1824L35.6947 17.629M35.6947 17.629V24.1131M35.6947 17.629L29.9121 16.875" stroke="currentColor" stroke-width="1.4" stroke-linecap="round"/>
</symbol><symbol viewBox="0 0 20 20" fill="none" id="icon-mail" xmlns="http://www.w3.org/2000/svg">
<path d="M3.4375 5.104L10 9.32276L17.0312 5.104M4.375 15.2535C3.33947 15.2535 2.5 14.414 2.5 13.3785V6.04151C2.5 5.00597 3.33947 4.1665 4.375 4.1665H15.625C16.6605 4.1665 17.5 5.00597 17.5 6.0415V13.3785C17.5 14.414 16.6605 15.2535 15.625 15.2535H4.375Z" stroke="currentColor" stroke-width="1.4" stroke-linecap="round" stroke-linejoin="round"/>
</symbol><symbol viewBox="0 0 20 20" fill="none" id="icon-next" xmlns="http://www.w3.org/2000/svg">
<path d="M7 17L14 9.99886L7 3" stroke="currentColor" stroke-width="2" stroke-linecap="round" stroke-linejoin="round"/>
</symbol><symbol viewBox="0 0 41 40" fill="none" id="icon-play" xmlns="http://www.w3.org/2000/svg">
<path d="M30.4551 18.2289C32.7326 19.4981 32.7409 21.0946 30.4551 22.5295L12.7935 34.4409C10.5743 35.6252 9.06711 34.9259 8.90889 32.3634L8.83395 7.43304C8.78399 5.07258 10.7284 4.40566 12.5811 5.53739L30.4551 18.2289Z" fill="currentColor" stroke="currentColor" stroke-width="1.4"/>
</symbol><symbol viewBox="0 0 20 20" fill="none" id="icon-prev" xmlns="http://www.w3.org/2000/svg">
<path d="M14.5918 3.225L13.1168 1.75L4.8668 10L13.1168 18.25L14.5918 16.775L7.8168 10L14.5918 3.225Z" fill="currentColor"/>
</symbol><symbol viewBox="0 0 24 24" fill="none" id="icon-search" xmlns="http://www.w3.org/2000/svg">
<path d="M16.9265 17.0401L20.3996 20.4001M19.2796 11.4401C19.2796 15.77 15.7695 19.2801 11.4396 19.2801C7.1097 19.2801 3.59961 15.77 3.59961 11.4401C3.59961 7.11019 7.1097 3.6001 11.4396 3.6001C15.7695 3.6001 19.2796 7.11019 19.2796 11.4401Z" stroke="currentColor" stroke-width="2" stroke-linecap="round"/>
</symbol><symbol viewBox="0 0 40 41" fill="none" id="icon-shield" xmlns="http://www.w3.org/2000/svg">
<path d="M16 19.1458L19 22.1458L25 16.1458M8 10.1458L17.3167 5.48744C19.0059 4.64286 20.9941 4.64286 22.6833 5.48744L32 10.1458C32 10.1458 32 18.9058 32 23.5258C32 28.1458 27.7293 31.2645 20 36.1458C12.2707 31.2645 8 27.1458 8 23.5258V10.1458Z" stroke="currentColor" stroke-width="1.4" stroke-linecap="round" stroke-linejoin="round"/>
</symbol><symbol viewBox="0 0 20 20" fill="none" id="icon-tel" xmlns="http://www.w3.org/2000/svg">
<path d="M17.2192 15.6423C17.2192 15.6423 16.2536 16.5906 16.017 16.8686C15.6316 17.28 15.1774 17.4742 14.5821 17.4742C14.5248 17.4742 14.4637 17.4742 14.4065 17.4704C13.273 17.398 12.2197 16.9562 11.4297 16.5792C9.2696 15.5356 7.37284 14.0541 5.79667 12.1764C4.49527 10.6111 3.62513 9.16381 3.04885 7.60989C2.69392 6.66155 2.56416 5.92268 2.62141 5.2257C2.65957 4.78009 2.83131 4.41066 3.14807 4.09454L4.44947 2.7958C4.63647 2.62061 4.83493 2.52539 5.02957 2.52539C5.27 2.52539 5.46464 2.67012 5.58676 2.79199C5.59058 2.7958 5.59439 2.79961 5.59821 2.80342C5.83101 3.02051 6.05236 3.24522 6.28517 3.48516C6.40347 3.60704 6.5256 3.72891 6.64773 3.8546L7.68961 4.89435C8.09415 5.29806 8.09415 5.67131 7.68961 6.07502C7.57893 6.18547 7.47207 6.29592 7.36139 6.40256C7.04082 6.7301 7.29265 6.47878 6.96062 6.77586C6.95299 6.78347 6.94535 6.78728 6.94154 6.7949C6.61333 7.12244 6.67439 7.44236 6.74309 7.65946C6.7469 7.67088 6.75072 7.68231 6.75453 7.69373C7.0255 8.34881 7.40714 8.96581 7.98724 9.70087L7.99105 9.70468C9.04438 10.9996 10.155 12.0089 11.38 12.782C11.5365 12.8811 11.6968 12.961 11.8494 13.0372C11.9868 13.1058 12.1166 13.1705 12.2273 13.2391C12.2425 13.2467 12.2578 13.2581 12.2731 13.2657C12.4028 13.3305 12.525 13.361 12.6509 13.361C12.9677 13.361 13.1661 13.1629 13.231 13.0982L13.9791 12.3516C14.1088 12.2221 14.3149 12.066 14.5553 12.066C14.792 12.066 14.9866 12.2145 15.1049 12.344C15.1087 12.3478 15.1087 12.3478 15.1125 12.3516L17.2154 14.4502C17.6085 14.8386 17.2192 15.6423 17.2192 15.6423Z" stroke="currentColor" stroke-width="1.4" stroke-linecap="round" stroke-linejoin="round"/>
</symbol></svg>