<svg width="41" height="41" viewBox="0 0 41 41" fill="none" xmlns="http://www.w3.org/2000/svg">
<path d="M13.3057 38.875L21.3057 38.875" stroke="white" stroke-width="1.4" stroke-linecap="round"/>
<path d="M8 16.7276C8.00003 13.9304 8.70976 11.2985 9.96289 9.00591L10.2207 8.55181C10.4106 8.21129 10.6125 7.89426 10.8262 7.57721C11.1112 7.14258 11.7639 7.29577 11.8945 7.78912C11.9657 8.04734 12.0141 8.18807 12.1328 8.42291C12.7859 9.98508 14.2818 11.0771 16.1104 11.0772C18.4801 11.0772 20.0588 9.23683 20.1553 6.92194L20.1602 6.69635C20.1602 5.5547 19.9741 4.29657 19.7773 3.25984L20.2998 2.70711L20.9795 2.56843C21.9323 3.50645 22.7877 4.53808 23.5439 5.63874C25.717 8.822 27 12.6281 27 16.7276C27 21.9195 22.7488 26.125 17.5 26.125V24.7246C21.9899 24.7246 25.5996 21.132 25.5996 16.7276C25.5996 12.9261 24.4114 9.3933 22.3877 6.42877V6.4278C22.0996 6.00866 21.7968 5.60097 21.4795 5.20612C21.528 5.7023 21.5596 6.20618 21.5596 6.69635C21.5595 9.73318 19.4771 12.4776 16.1104 12.4776C13.9766 12.4775 12.1806 11.3448 11.1953 9.669C10.0495 11.762 9.40042 14.1669 9.40039 16.7276C9.40039 21.132 13.0101 24.7246 17.5 24.7246V26.125C12.2512 26.125 8 21.9195 8 16.7276ZM19.6973 2.83113C19.5789 2.26755 20.2788 1.89196 20.6943 2.29109C20.7907 2.38217 20.8851 2.47547 20.9795 2.56843L20.2998 2.70711L19.7773 3.25984C19.7494 3.11253 19.7253 2.9685 19.6973 2.83113Z" fill="white"/>
<path d="M14 20.1054C14 18.6449 15.0369 17.59 16.7959 17.1786L17.1572 17.1053C18.8089 16.8168 20.5057 16.2106 21.6855 15.2586C22.0001 15.0087 22.5165 15.1245 22.6064 15.4803C22.8647 16.4609 22.9999 17.48 23 18.5087C23.0112 21.057 20.5956 23.1249 17.6181 23.125V21.7246C20.0368 21.7245 21.6063 20.0876 21.5996 18.5155V18.5087C21.5996 18.0253 21.5641 17.5444 21.498 17.0692C20.3411 17.7328 19.0054 18.17 17.7334 18.4218L17.3984 18.4843C16.5975 18.6245 16.0882 18.8955 15.7988 19.1688C15.535 19.4181 15.4004 19.714 15.4004 20.1054C15.4004 20.778 16.1424 21.7246 17.6181 21.7246V23.125L17.4316 23.1211C15.5803 23.0432 14.0988 21.8101 14.0049 20.2616L14 20.1054Z" fill="white"/>
<path d="M5.30575 24.1131L16.3675 35.1751C16.7551 35.5628 17.3827 35.5661 17.7743 35.1824L35.6947 17.629M35.6947 17.629V24.1131M35.6947 17.629L29.9121 16.875" stroke="white" stroke-width="1.4" stroke-linecap="round"/>
</svg>
