<svg width="16" height="16" viewBox="0 0 16 16" fill="none" xmlns="http://www.w3.org/2000/svg">
<path d="M4.77664 11.6573H2.3304C1.92644 11.6573 1.59961 11.3298 1.59961 10.9258V3.24583C1.59961 2.84188 1.92708 2.5144 2.33104 2.5144H5.14202C5.91797 2.5144 6.66214 2.82265 7.21082 3.37133L7.81675 3.97726L8.42269 3.37133C8.97136 2.82265 9.71553 2.5144 10.4915 2.5144H13.6682C14.0721 2.5144 14.3996 2.84188 14.3996 3.24583V10.9258C14.3996 11.3298 14.0721 11.6573 13.6682 11.6573H10.8572C10.0812 11.6573 9.33708 11.9655 8.7884 12.5142L7.81675 13.4858L6.8451 12.5142C6.29642 11.9655 5.55259 11.6573 4.77664 11.6573Z" fill="#3D3D3D"/>
</svg>
