<svg width="26" height="26" viewBox="0 0 26 26" fill="none" xmlns="http://www.w3.org/2000/svg">
<mask id="mask0_2012_8340" style="mask-type:luminance" maskUnits="userSpaceOnUse" x="1" y="0" width="24" height="25">
<path d="M13 1.37598C19.3513 1.37598 24.5 6.5247 24.5 12.876C24.5 19.2273 19.3513 24.376 13 24.376C6.64873 24.376 1.5 19.2273 1.5 12.876C1.5 6.5247 6.64873 1.37598 13 1.37598Z" fill="white" stroke="white"/>
</mask>
<g mask="url(#mask0_2012_8340)">
<path d="M16.3438 7.37695C16.953 7.37937 17.43 7.44583 17.7979 7.55176C18.1538 7.67179 18.445 7.8458 18.71 8.09375C18.9619 8.36208 19.1335 8.65188 19.2344 8.98242C19.3418 9.33455 19.4111 9.82234 19.4111 10.4736V11.373C19.4111 12.4888 19.2144 13.2219 18.9131 13.6328C18.7469 13.8594 18.5786 14.0213 18.3525 14.1475C18.1197 14.2773 17.7966 14.3852 17.2988 14.459L16.4746 14.5811L16.9697 15.251L19.2803 18.376H17.1699L14.6885 14.6934L14.54 14.4727H8.23242V18.376H6.22559V7.37695H16.3438ZM8.23242 12.8281H15.3232V12.8291H15.8232C16.0481 12.8291 16.2607 12.815 16.4482 12.7764C16.6295 12.739 16.8335 12.6698 16.998 12.5264C17.3002 12.2628 17.4033 11.8531 17.4033 11.4297V10.4219C17.4033 10.0115 17.2977 9.60513 16.998 9.34375C16.8424 9.20807 16.6488 9.13202 16.4639 9.08789C16.2736 9.04253 16.0567 9.02247 15.8232 9.02246H8.23242V12.8281Z" fill="#ADADAD" stroke="#ADADAD"/>
<path d="M24.999 -10.624C31.3503 -10.624 36.499 -5.4753 36.499 0.875977C36.499 7.22725 31.3503 12.376 24.999 12.376C23.8409 12.376 22.724 12.2036 21.6709 11.8857C21.6789 11.7155 21.6846 11.5442 21.6846 11.373V10.4736C21.6846 9.67815 21.6018 8.95245 21.4092 8.32031V8.31934C21.1972 7.6249 20.8332 7.0286 20.3516 6.52051L20.3271 6.49512L20.3184 6.48535L20.3086 6.47656L20.2832 6.45215C19.769 5.96582 19.1833 5.61743 18.5098 5.39258L18.4775 5.38184L18.4678 5.37891L18.4443 5.37207C17.8116 5.18767 17.0971 5.10354 16.3105 5.10352H14.5371V5.10449H14.3047C13.7868 3.79589 13.499 2.37034 13.499 0.875977C13.499 -5.4753 18.6477 -10.624 24.999 -10.624Z" fill="#ADADAD" stroke="#ADADAD"/>
</g>
<path d="M24.818 12.8758C24.818 6.3488 19.5268 1.05762 12.9998 1.05762C6.47282 1.05762 1.18164 6.3488 1.18164 12.8758C1.18164 19.4028 6.47282 24.694 12.9998 24.694C19.5268 24.694 24.818 19.4028 24.818 12.8758Z" stroke="#ADADAD" stroke-width="2"/>
</svg>
