<svg width="24" height="25" viewBox="0 0 24 25" fill="none" xmlns="http://www.w3.org/2000/svg">
<path d="M12 24.905C18.6274 24.905 24 19.5193 24 12.8758C24 6.23231 18.6274 0.84668 12 0.84668C5.37258 0.84668 0 6.23231 0 12.8758C0 19.5193 5.37258 24.905 12 24.905Z" fill="#ADADAD"/>
<path fill-rule="evenodd" clip-rule="evenodd" d="M5.43906 12.7444C8.93439 11.208 11.2708 10.2149 12.4297 9.72777C15.7568 8.34124 16.4484 8.09766 16.897 8.09766C16.9905 8.09766 17.2148 8.11639 17.3643 8.22882C17.4764 8.3225 17.5138 8.45366 17.5325 8.54734C17.5512 8.64103 17.5699 8.84713 17.5512 9.01577C17.3643 10.9082 16.5979 15.5362 16.1867 17.6535C16.0185 18.5529 15.6821 18.8527 15.3643 18.8902C14.6727 18.9464 14.1307 18.4217 13.4578 17.9908C12.411 17.2975 11.8129 16.8666 10.7849 16.192C9.60729 15.4051 10.3736 14.9741 11.0465 14.2809C11.2148 14.0935 14.2989 11.3017 14.3549 11.0394C14.3549 11.0019 14.3736 10.8895 14.2989 10.8333C14.2241 10.777 14.1307 10.7958 14.0559 10.8145C13.9437 10.8333 12.2615 11.9575 8.99047 14.1684C8.50448 14.5057 8.07458 14.6556 7.68205 14.6556C7.25215 14.6556 6.42972 14.412 5.8129 14.2059C5.06523 13.9623 4.4671 13.8312 4.52318 13.419C4.57925 13.1941 4.87832 12.9693 5.43906 12.7444Z" fill="black"/>
</svg>
