<svg width="24" height="25" viewBox="0 0 24 25" fill="none" xmlns="http://www.w3.org/2000/svg">
<path d="M0 12.3709C0 6.89396 0 4.15548 1.684 2.45358C3.368 0.751692 6.079 0.752197 11.5 0.752197H12.5C17.921 0.752197 20.632 0.752197 22.316 2.45358C24 4.15548 24 6.89396 24 12.3709V13.3813C24 18.8582 24 21.5972 22.316 23.2986C20.6315 25 17.921 25 12.5 25H11.5C6.079 25 3.3685 25 1.684 23.2986C0 21.5967 0 18.8582 0 13.3813V12.3709Z" fill="#ADADAD"/>
<path fill-rule="evenodd" clip-rule="evenodd" d="M6.50198 8.33008H4.75198C4.25198 8.33008 4.15198 8.5675 4.15198 8.83019C4.15198 9.29847 4.74498 11.6212 6.91448 14.6931C8.36048 16.791 10.398 17.9282 12.252 17.9282C13.3645 17.9282 13.502 17.6756 13.502 17.2406V15.6549C13.502 15.1498 13.607 15.0487 13.9595 15.0487C14.2195 15.0487 14.6645 15.1801 15.7025 16.1914C16.889 17.3902 17.0845 17.9282 17.752 17.9282H19.502C20.002 17.9282 20.252 17.6756 20.1075 17.177C19.95 16.6804 19.3835 15.9595 18.6315 15.1053C18.2235 14.6183 17.6115 14.0935 17.4265 13.8313C17.1665 13.4944 17.2415 13.3443 17.4265 13.0448C17.4265 13.0448 19.5585 10.0102 19.7815 8.98022C19.8925 8.60539 19.7815 8.33008 19.2515 8.33008H17.502C17.057 8.33008 16.852 8.5675 16.741 8.83019C16.741 8.83019 15.851 11.0216 14.5905 12.4451C14.1825 12.8573 13.997 12.9887 13.7745 12.9887C13.6635 12.9887 13.5025 12.8573 13.5025 12.483V8.98022C13.5025 8.53063 13.373 8.33008 13.0025 8.33008H10.2525C9.97448 8.33008 9.80748 8.53871 9.80748 8.73673C9.80748 9.16259 10.4375 9.26109 10.5025 10.4593V13.0634C10.5025 13.6343 10.4005 13.7378 10.1775 13.7378C9.58448 13.7378 8.14148 11.5363 7.28548 9.0176C7.11748 8.52709 6.94898 8.33008 6.50198 8.33008Z" fill="white"/>
</svg>
