<svg width="24" height="25" viewBox="0 0 24 25" fill="none" xmlns="http://www.w3.org/2000/svg">
<path d="M0 12.3707C0 6.89372 0 4.15523 1.684 2.45334C3.368 0.751448 6.079 0.751953 11.5 0.751953H12.5C17.921 0.751953 20.632 0.751953 22.316 2.45334C24 4.15523 24 6.89372 24 12.3707V13.381C24 18.858 24 21.597 22.316 23.2984C20.6315 24.9997 17.921 24.9997 12.5 24.9997H11.5C6.079 24.9997 3.3685 24.9997 1.684 23.2984C0 21.5965 0 18.858 0 13.381V12.3707Z" fill="#ADADAD"/>
<path fill-rule="evenodd" clip-rule="evenodd" d="M6.50234 8.33008H4.75234C4.25234 8.33008 4.15234 8.5675 4.15234 8.83019C4.15234 9.29847 4.74534 11.6212 6.91484 14.6931C8.36084 16.791 10.3983 17.9282 12.2523 17.9282C13.3648 17.9282 13.5023 17.6756 13.5023 17.2406V15.6549C13.5023 15.1498 13.6073 15.0487 13.9598 15.0487C14.2198 15.0487 14.6648 15.1801 15.7028 16.1914C16.8893 17.3902 17.0848 17.9282 17.7523 17.9282H19.5023C20.0023 17.9282 20.2523 17.6756 20.1078 17.177C19.9503 16.6804 19.3838 15.9595 18.6318 15.1053C18.2238 14.6183 17.6118 14.0935 17.4268 13.8313C17.1668 13.4944 17.2418 13.3443 17.4268 13.0448C17.4268 13.0448 19.5588 10.0102 19.7818 8.98022C19.8928 8.60539 19.7818 8.33008 19.2518 8.33008H17.5023C17.0573 8.33008 16.8523 8.5675 16.7413 8.83019C16.7413 8.83019 15.8513 11.0216 14.5908 12.4451C14.1828 12.8573 13.9973 12.9887 13.7748 12.9887C13.6638 12.9887 13.5028 12.8573 13.5028 12.483V8.98022C13.5028 8.53063 13.3733 8.33008 13.0028 8.33008H10.2528C9.97484 8.33008 9.80784 8.53871 9.80784 8.73673C9.80784 9.16259 10.4378 9.26109 10.5028 10.4593V13.0634C10.5028 13.6343 10.4008 13.7378 10.1778 13.7378C9.58484 13.7378 8.14184 11.5363 7.28584 9.0176C7.11784 8.52709 6.94934 8.33008 6.50234 8.33008Z" fill="black"/>
</svg>
